<svg width="24" height="24" viewBox="0 0 24 24" fill="none" xmlns="http://www.w3.org/2000/svg">
<rect x="0.799988" y="0.799988" width="22.4" height="22.4" rx="11.2" fill="url(#paint0_linear)"/>
<path fill-rule="evenodd" clip-rule="evenodd" d="M12.5868 16.7853V17.1313L12.5866 17.1359C12.5843 17.18 12.5744 17.3758 12.4119 17.5254C12.2558 17.6587 12.0771 17.6487 12.04 17.6466C11.9746 17.6389 11.764 17.6023 11.6429 17.4331C11.5448 17.2947 11.5372 17.114 11.5352 17.0563C11.5336 17.0142 11.5357 16.9864 11.5376 16.9622C11.5402 16.9289 11.5422 16.9023 11.5333 16.8545C11.5064 16.7065 11.416 16.6084 11.3853 16.5757C11.3699 16.5584 11.2219 16.4123 11.0104 16.4066C10.7778 16.3989 10.5509 16.5642 10.451 16.818V17.7196C10.4183 17.9849 10.1934 18.1867 9.92999 18.1925C9.67622 18.1983 9.44937 18.0195 9.39362 17.7677V16.8122C9.34172 16.5604 9.12256 16.3758 8.87072 16.37C8.60734 16.3623 8.3728 16.5527 8.3209 16.816V18.5751C8.26515 18.8269 8.04022 19.0038 7.7903 18.9999C7.55769 18.9961 7.35006 18.8365 7.28278 18.6058V9.33387C7.31738 8.94554 7.48656 7.52293 8.67463 6.35408C10.0895 4.9603 11.8717 4.99106 12.1831 5.0026C13.9383 5.06219 15.0648 6.0734 15.359 6.35408C16.6124 7.55561 16.8027 9.02436 16.8412 9.40885C16.8393 10.9372 16.8369 12.4655 16.8345 13.9939L16.8344 13.9997C16.832 15.5261 16.8296 17.0525 16.8277 18.5789C16.7662 18.8192 16.5624 18.9884 16.3375 18.998C16.0664 19.0096 15.8108 18.7904 15.7819 18.4866V16.8007C15.7262 16.5411 15.4916 16.3585 15.234 16.3681C14.961 16.3777 14.7323 16.6026 14.7188 16.8852V17.6677C14.7111 17.933 14.5093 18.1521 14.2536 18.1867C13.9844 18.2213 13.7249 18.0426 13.6595 17.7715V16.8891C13.6422 16.6296 13.45 16.4181 13.2058 16.3777C12.9367 16.3335 12.6637 16.5065 12.5868 16.7853ZM11.1719 9.46646C11.1719 10.0302 10.7149 10.4873 10.1511 10.4873C9.58732 10.4873 9.13028 10.0302 9.13028 9.46646C9.13028 8.90267 9.58732 8.44564 10.1511 8.44564C10.7149 8.44564 11.1719 8.90267 11.1719 9.46646ZM13.6826 10.4873C14.2464 10.4873 14.7034 10.0302 14.7034 9.46646C14.7034 8.90267 14.2464 8.44564 13.6826 8.44564C13.1188 8.44564 12.6618 8.90267 12.6618 9.46646C12.6618 10.0302 13.1188 10.4873 13.6826 10.4873ZM12.8637 11.3159C12.8637 11.3159 12.7618 11.7638 12.2716 11.8215C11.418 11.9234 11.318 11.3159 11.318 11.3159C11.318 11.3159 11.2681 10.9853 11.641 11.0948C12.014 11.2044 12.5503 11.0948 12.5503 11.0948C12.5503 11.0948 12.9406 11.0006 12.8637 11.3159Z" fill="white"/>
<defs>
<linearGradient id="paint0_linear" x1="-0.413721" y1="21.514" x2="15.0003" y2="1.07938" gradientUnits="userSpaceOnUse">
<stop offset="0.229" stop-color="#8ADAE2"/>
<stop offset="0.72" stop-color="#9EADCE"/>
<stop offset="1" stop-color="#C499C9"/>
</linearGradient>
</defs>
</svg>
