<svg width="22" height="28" viewBox="0 0 22 28" fill="none" xmlns="http://www.w3.org/2000/svg">
<path fill-rule="evenodd" clip-rule="evenodd" d="M2.03215 21.8777C1.36431 21.469 0.955566 20.7431 0.955566 19.9613V15.5969C0.955566 15.0788 1.37771 14.6588 1.8959 14.6611C2.06118 14.6611 2.22423 14.7058 2.36718 14.7884L12.215 20.5309C12.7912 20.8659 13.1464 21.4824 13.1464 22.1502V26.671C13.1486 27.2919 12.6461 27.7967 12.0251 27.7967C11.8174 27.7967 11.6119 27.7386 11.4355 27.6314L2.03215 21.8777ZM16.7112 13.5934C17.2874 13.9285 17.6403 14.5472 17.6425 15.2128V24.3883C17.6425 24.6585 17.4974 24.9087 17.2606 25.0405L15.1052 26.2533C15.0784 26.2689 15.0494 26.2801 15.0181 26.289V21.1943C15.0181 20.5354 14.6719 19.9234 14.1046 19.5839L5.4562 14.4109V8.65949C5.4562 8.1413 5.87835 7.72139 6.39654 7.72362C6.56182 7.72362 6.72487 7.76829 6.86782 7.85093L16.7112 13.5934ZM21.0219 6.81679C21.6004 7.15183 21.9556 7.77053 21.9556 8.43836V21.8398C21.9533 22.1145 21.8015 22.3669 21.5602 22.4987L19.5165 23.6021V14.2724C19.5165 13.6135 19.1703 13.0038 18.6075 12.6643L9.76699 7.36178V1.90741C9.76699 1.74213 9.81166 1.57908 9.89207 1.43613C10.1534 0.989415 10.7274 0.837532 11.1741 1.09663L21.0219 6.81679Z" fill="#00D395"/>
</svg>
