<svg width="22" height="22" viewBox="0 0 22 22" fill="none" xmlns="http://www.w3.org/2000/svg">
<path d="M21.3666 10.0514C21.3224 9.2796 21.149 8.6608 21.0164 8.2698C21.0164 8.2698 20.7478 7.5218 20.2616 6.8214C18.531 4.319 13.7472 2.347 12.887 1.9934C11.8738 1.5752 10.8538 1.2726 10.8538 1.2726C10.592 1.1944 10.3166 1.1162 10.0208 1.0414C8.76619 0.725197 7.67479 0.575597 6.86219 0.504197C6.46779 0.470197 5.16559 0.517797 3.91439 1.2386C2.02739 2.3232 1.39499 4.353 0.997188 5.6246C0.517788 7.1478 0.493988 8.4636 0.493988 9.5278C0.493988 10.3574 0.548388 11.2992 0.697988 12.3328C0.799988 13.0298 1.00059 14.366 1.56499 15.9028C2.18039 17.5926 3.45199 21.0708 5.89659 21.4312C6.11079 21.4618 6.52219 21.5162 7.01519 21.3734C8.92599 20.8294 10.1296 17.885 10.1772 14.0736C10.2214 13.2134 10.218 12.2172 10.116 11.1156C10.0514 10.4288 9.94599 9.3272 9.55499 7.94C9.27279 6.937 8.93959 6.1176 8.66759 5.526C8.53159 5.101 8.45339 4.5944 8.70839 4.2918C9.24899 3.6594 10.9626 4.2952 12.6422 4.9344C14.0613 5.47685 15.4337 6.13409 16.746 6.8996C17.9904 7.8006 18.0312 8.3446 17.9836 8.5894C17.7966 9.5448 15.5492 9.9562 13.5364 10.3166C12.4858 10.507 11.9724 10.6566 11.357 10.5988C10.9048 10.558 10.728 10.4764 10.5546 10.6056C10.15 10.9048 10.5818 11.7276 10.5784 13.4106C10.5784 14.0022 10.5206 14.6516 10.4934 14.9678C10.3982 16.0898 10.269 16.7188 10.5512 16.882C10.6838 16.9568 10.8436 16.8956 11.0034 16.8344C11.6154 16.6066 12.2512 16.4468 12.8802 16.2768C14.5496 15.8314 16.2054 15.4166 16.729 15.284C17.4668 15.148 18.0652 14.9712 18.4936 14.8284C19.2518 14.5768 19.6972 14.3898 20.1154 14.043C21.523 12.8938 21.4006 10.6396 21.3666 10.0514V10.0514ZM6.65139 19.6734C5.11799 20.0372 3.35339 18.1264 2.70739 15.403C2.06139 12.6796 2.77879 10.1806 4.31219 9.8168C5.84559 9.453 7.61019 11.3638 8.25619 14.0872C8.89879 16.8072 8.18139 19.3096 6.65139 19.6734V19.6734Z" fill="url(#paint0_linear)"/>
<path d="M3.74099 11.7548C2.30959 13.3426 3.75119 16.5012 3.91099 16.8378C4.36659 17.8068 4.84259 18.191 5.24379 18.395C5.54464 18.5441 5.87126 18.6341 6.20599 18.6602C6.31139 18.6534 6.54599 18.6296 6.78399 18.4698C6.99479 18.3304 7.10359 18.1536 7.15459 18.0618C6.62064 17.7343 6.15249 17.3099 5.77419 16.8106C5.68239 16.6916 4.02999 14.4238 5.01259 12.496C5.27779 11.9758 5.65859 11.629 5.96799 11.4046C5.82859 11.272 5.58719 11.0884 5.25399 11.0374C4.49239 10.9184 3.86339 11.6154 3.74099 11.7548V11.7548Z" fill="url(#paint1_linear)"/>
<defs>
<linearGradient id="paint0_linear" x1="8.35897" y1="1.72871" x2="12.8287" y2="17.6212" gradientUnits="userSpaceOnUse">
<stop stop-color="#F44336"/>
<stop offset="0.123" stop-color="#F66342"/>
<stop offset="0.392" stop-color="#FBB45F"/>
<stop offset="0.578" stop-color="#FEF075"/>
<stop offset="0.596" stop-color="#F2ED7C"/>
<stop offset="0.707" stop-color="#ACDAA7"/>
<stop offset="0.806" stop-color="#75CBC9"/>
<stop offset="0.891" stop-color="#4DC0E1"/>
<stop offset="0.959" stop-color="#34B9F0"/>
<stop offset="1" stop-color="#2BB7F6"/>
</linearGradient>
<linearGradient id="paint1_linear" x1="4.07215" y1="11.2597" x2="6.16397" y2="18.7016" gradientUnits="userSpaceOnUse">
<stop offset="0.392" stop-color="#FEF075"/>
<stop offset="0.418" stop-color="#F2ED7C"/>
<stop offset="0.577" stop-color="#ACDAA7"/>
<stop offset="0.721" stop-color="#75CBC9"/>
<stop offset="0.844" stop-color="#4DC0E1"/>
<stop offset="0.941" stop-color="#34B9F0"/>
<stop offset="1" stop-color="#2BB7F6"/>
</linearGradient>
</defs>
</svg>
