<svg width="26" height="18" viewBox="0 0 26 18" fill="none" xmlns="http://www.w3.org/2000/svg">
<path d="M25.7991 1.68159V15.2931C25.7991 15.2931 25.8745 16.7754 24.6629 16.7754C23.4514 16.7754 23.691 15.3153 23.691 15.3153V4.11363C23.691 4.11363 23.7975 2.87542 23.2028 3.46568C22.6081 4.05594 16.3993 8.17 16.3993 8.17C16.3993 8.17 15.7514 8.46735 15.7514 9.46591C15.7514 10.4645 15.7514 15.7946 15.7514 15.7946C15.7514 15.7946 15.9511 16.9307 14.7794 16.9307C14.7794 16.9307 13.9673 16.944 13.9673 16.2827C13.9673 15.6215 13.9673 8.81796 13.9673 8.81796C13.9673 8.81796 13.8696 8.0058 14.7794 7.35784C15.6892 6.70989 24.339 0.869425 24.339 0.869425C24.339 0.869425 25.7236 0.265851 25.7991 1.68159V1.68159ZM12.0278 16.2827V9.14637C12.0278 9.14637 12.0278 8.19663 11.2157 7.68626L1.49637 0.869425C1.49637 0.869425 0.360229 0.376802 0.20046 1.51738V16.123C0.20046 16.123 0.173832 16.9174 0.848414 17.0949C0.848414 17.0949 1.98455 17.4721 1.98455 15.9588C1.98455 14.4498 1.98455 4.27784 1.98455 4.27784C1.98455 4.27784 1.8381 3.38579 2.63251 3.95386C3.42692 4.52193 9.60023 8.8224 9.60023 8.8224C9.60023 8.8224 10.0884 9.01767 10.0884 9.63456C10.0884 10.2514 10.0884 16.2872 10.0884 16.2872C10.0884 16.2872 10.0218 17.268 11.0603 17.2591C12.0944 17.2502 12.0278 16.2827 12.0278 16.2827V16.2827Z" fill="#4FA89A"/>
</svg>
