<svg width="21" height="24" viewBox="0 0 21 24" fill="none" xmlns="http://www.w3.org/2000/svg">
<path d="M9.7446 11.4013C10.23 12.2568 9.14863 12.5212 8.63917 12.5692C7.87018 12.6461 7.71157 12.1992 7.86056 11.6416C7.90863 11.4398 8.01917 11.262 8.17297 11.1274C8.32677 10.9928 8.51902 10.9063 8.72568 10.8871C8.92755 10.8678 9.12941 10.9063 9.31204 10.9976C9.48987 11.0841 9.63886 11.2283 9.7446 11.4013ZM12.7629 9.82009C12.2006 14.1409 19.78 13.2421 19.6358 16.6786C20.3856 15.7029 20.7028 13.0499 18.5015 11.6849C16.5454 10.4641 13.9885 11.1322 12.7629 9.82009ZM17.1318 8.19078C17.0837 8.14272 17.0308 8.09946 16.9828 8.0562C17.0308 8.09946 17.0837 8.14752 17.1318 8.19078ZM18.8908 11.3389L18.886 11.334C18.8187 11.2043 18.7418 11.0841 18.6505 10.9688C18.3953 10.6217 18.0289 10.3724 17.6124 10.2623C17.3336 10.1902 17.0501 10.1469 16.7665 10.1277C16.4781 10.1085 16.1801 10.094 15.8821 10.0796C15.2862 10.046 14.671 9.9835 14.075 9.81528C13.926 9.77202 13.777 9.72396 13.6328 9.67109C13.5559 9.64226 13.4886 9.61342 13.4166 9.58458C13.3445 9.55094 13.2676 9.5173 13.1907 9.47885C12.9071 9.32505 12.6476 9.1328 12.4169 8.91171C11.9555 8.47915 11.595 7.99372 11.2297 7.51791C10.8885 7.04209 10.5232 6.5855 10.1291 6.15294C9.7446 5.72519 9.28801 5.36953 8.78336 5.09557C8.25963 4.83082 7.69046 4.66773 7.10599 4.61495C7.71157 4.54767 8.32196 4.62456 8.8939 4.83604C9.47065 5.06193 9.99933 5.39837 10.4463 5.82612C10.7386 6.10157 11.0132 6.39534 11.2682 6.70566C13.1666 6.33077 14.7094 6.6624 15.8918 7.31124L15.9206 7.32566C16.2955 7.53233 16.6511 7.77744 16.9732 8.06101C17.026 8.10427 17.0741 8.15233 17.1221 8.19558C17.3721 8.42628 17.6076 8.68101 17.8239 8.94535L17.8383 8.96939C18.5448 9.85373 18.8908 10.7765 18.8908 11.3389V11.3389ZM18.8908 11.3389L18.886 11.3292L18.8908 11.3389Z" fill="#FF007A"/>
<path d="M7.2069 5.16774C7.69233 5.23983 8.18737 5.43208 8.50458 5.80216C8.82179 6.17224 8.94194 6.65286 9.03326 7.10945C9.11016 7.46511 9.16784 7.82558 9.30722 8.16201C9.3745 8.32542 9.47543 8.46961 9.55714 8.62341C9.62443 8.75318 9.74939 8.86852 9.79745 9.0031C9.80706 9.02232 9.80706 9.04636 9.80706 9.06558C9.80226 9.08481 9.79745 9.10884 9.78303 9.12325C9.61481 9.3107 9.15822 9.10403 8.9852 9.01752C8.68721 8.86853 8.42287 8.66666 8.20178 8.41674C7.50969 7.64775 7.15403 6.53751 7.17806 5.5282C7.17806 5.40805 7.18767 5.28789 7.2069 5.16774V5.16774ZM15.3102 13.8478C14.2624 16.7844 19.011 18.7501 17.2327 21.7348C19.059 20.9754 19.9242 18.6924 19.1696 16.8757C18.5063 15.2848 16.5454 14.7033 15.3102 13.8478ZM9.03326 17.6879C9.31683 17.4717 9.62923 17.2938 9.96086 17.1593C10.2973 17.0247 10.6433 16.9238 10.999 16.8565C11.7007 16.7219 12.3976 16.6882 12.984 16.4527C13.2723 16.3374 13.5367 16.174 13.7674 15.9625C13.9885 15.7558 14.1615 15.4963 14.2624 15.2127C14.3682 14.9099 14.4114 14.5879 14.3874 14.2707C14.3634 13.9295 14.2817 13.5882 14.1567 13.271C14.4162 13.545 14.6085 13.8766 14.7094 14.2419C14.8103 14.6072 14.8248 14.9868 14.743 15.3569C14.6517 15.7462 14.4547 16.1067 14.1711 16.3903C13.8919 16.6652 13.5555 16.8753 13.1858 17.0055C12.835 17.1304 12.4649 17.2073 12.0948 17.2313C11.7344 17.2602 11.3883 17.2698 11.0471 17.289C10.3598 17.3131 9.6821 17.4524 9.03326 17.6879V17.6879ZM15.7283 22.845C15.6226 22.9315 15.5169 23.018 15.4015 23.0949C15.2862 23.1718 15.1612 23.2391 15.0362 23.3016C14.7719 23.4314 14.4835 23.4987 14.1903 23.4939C13.3925 23.4794 12.8302 22.8835 12.5034 22.2106C12.2775 21.754 12.1237 21.259 11.8593 20.8216C11.4796 20.1968 10.826 19.6969 10.0666 19.7883C9.75419 19.8267 9.46582 19.9661 9.2928 20.24C8.83621 20.9466 9.48985 21.9414 10.3213 21.8021C10.4642 21.7831 10.5989 21.7249 10.7106 21.6338C10.826 21.5377 10.9125 21.408 10.9654 21.2638C11.0182 21.1148 11.0326 20.9514 10.999 20.7976C10.9654 20.6342 10.8692 20.49 10.7299 20.3986C10.8885 20.4755 11.0134 20.6101 11.0759 20.7735C11.1432 20.9418 11.1576 21.1292 11.124 21.307C11.0903 21.4945 11.0086 21.6675 10.8885 21.8117C10.7564 21.9593 10.5871 22.0689 10.3982 22.1289C10.2108 22.1914 10.0089 22.2154 9.81187 22.1914C9.53547 22.1525 9.27474 22.0395 9.05729 21.8645C8.79776 21.6579 8.61031 21.3935 8.37481 21.1628C8.10753 20.8833 7.79365 20.6523 7.44721 20.4804C7.2069 20.3746 6.95697 20.2977 6.69744 20.2497C6.56767 20.2208 6.4379 20.2016 6.30813 20.1872C6.25046 20.1824 5.95728 20.1151 5.91402 20.1535C6.31775 19.7786 6.75992 19.447 7.23093 19.1634C7.71636 18.8751 8.23543 18.654 8.77372 18.5002C9.33605 18.3416 9.92241 18.2983 10.4992 18.3656C10.7971 18.3993 11.0903 18.4762 11.3643 18.5915C11.6575 18.7069 11.9218 18.8751 12.1573 19.0865C12.388 19.3076 12.5754 19.5672 12.71 19.8604C12.8302 20.1343 12.9167 20.4179 12.9744 20.7111C13.1426 21.5858 13.0801 22.9411 14.2192 23.1382C14.2768 23.1478 14.3393 23.1574 14.397 23.1622L14.5844 23.167C14.7142 23.1574 14.8392 23.1382 14.9641 23.1142C15.2333 23.0421 15.4832 22.9556 15.7283 22.845V22.845ZM9.11016 21.8934L9.08132 21.8694L9.11016 21.8934ZM8.09124 9.56543C8.04799 9.72403 7.97589 9.87783 7.87977 10.0076C7.69713 10.2479 7.45201 10.4354 7.17325 10.5507C6.92272 10.6598 6.65685 10.7295 6.38503 10.7574C6.32736 10.767 6.26488 10.7718 6.2072 10.7718C6.03418 10.7766 5.87077 10.8391 5.73619 10.9496C5.60106 11.0577 5.50351 11.2058 5.45743 11.3726C5.43821 11.4543 5.42379 11.5408 5.41418 11.6273C5.38534 11.8484 5.38053 12.0791 5.3565 12.3578C5.29719 12.8303 5.16081 13.2897 4.95278 13.718C4.68363 14.2899 4.38084 14.7513 4.44813 15.4098C4.49619 15.8375 4.71247 16.1259 5.00084 16.4191C5.52472 16.9574 6.69744 17.1977 6.4331 18.5242C6.27449 19.3172 4.972 20.1439 3.13603 20.4371C3.31866 20.4083 2.90052 19.7017 2.87649 19.6585C2.67944 19.3509 2.46316 19.0577 2.30936 18.7213C2.00176 18.0676 1.86238 17.3179 1.98734 16.6017C2.12192 15.852 2.67463 15.2752 3.13122 14.7033C3.67913 14.0208 4.25107 13.1268 4.38084 12.2377C4.40968 12.0214 4.43371 11.7523 4.48177 11.4879C4.52503 11.1899 4.62115 10.9064 4.75572 10.6372C4.84704 10.4642 4.972 10.3056 5.11619 10.171C5.19314 10.1006 5.24403 10.0063 5.26061 9.90335C5.27719 9.80039 5.25847 9.69485 5.20751 9.60388L2.28052 4.31703L6.48116 9.52698C6.52858 9.58767 6.58907 9.63691 6.65813 9.67102C6.72719 9.70514 6.80305 9.72325 6.88007 9.72403C6.95632 9.72603 7.03207 9.71112 7.10187 9.68037C7.17167 9.64963 7.2338 9.60381 7.2838 9.5462C7.33667 9.48372 7.3655 9.40682 7.37031 9.32512C7.37031 9.24341 7.34628 9.1617 7.29821 9.09922C7.02426 8.74837 6.73589 8.3879 6.45232 8.03705L5.39495 6.72014L3.2706 4.09595L0.377258 0.448029L3.54456 3.86044L5.80348 6.36929L6.92814 7.62852C7.30302 8.05147 7.67791 8.46 8.04799 8.90697L8.11047 8.98387L8.12489 9.09922C8.1345 9.24822 8.12488 9.40682 8.09124 9.56543V9.56543Z" fill="#FF007A"/>
<path d="M9.05725 21.8597C8.85539 21.7011 8.67275 21.5184 8.51895 21.3118C8.68236 21.504 8.865 21.6915 9.05725 21.8597Z" fill="#FF007A"/>
</svg>
