<svg width="463" height="447" viewBox="0 0 463 447" fill="none" xmlns="http://www.w3.org/2000/svg">
<path d="M291 173.5L382 90.5" stroke="#E9EEF2"/>
<path d="M294 274L383 343" stroke="#E9EEF2"/>
<path d="M65.5 175L168.5 205" stroke="#E9EEF2"/>
<circle cx="236.5" cy="225.5" r="141" stroke="#E9EEF2"/>
<circle cx="236.5" cy="225.5" r="211" stroke="#E9EEF2"/>
<circle cx="236.5" cy="225.5" r="86" fill="#FAFBFD" stroke="#E9EEF2"/>
<path fill-rule="evenodd" clip-rule="evenodd" d="M224.021 261.605C226.612 263.769 230.552 261.944 230.578 258.569L230.813 228.144C230.82 227.216 230.405 226.334 229.686 225.748L211.5 210.928C209.51 209.306 206.527 210.708 206.507 213.276L206.248 246.762L224.021 261.605Z" fill="#3F75FF"/>
<path fill-rule="evenodd" clip-rule="evenodd" d="M250.102 261.887C247.519 264.089 243.54 262.272 243.514 258.878L243.28 228.546C243.273 227.629 243.677 226.757 244.382 226.171L262.569 211.03C264.553 209.378 267.566 210.776 267.586 213.358L267.845 246.758L250.102 261.887Z" fill="#3F75FF"/>
<path d="M234.552 216.647L214.273 200.268C211.351 197.908 213.02 193.185 216.776 193.185H257.76C261.536 193.185 263.193 197.95 260.231 200.293L239.526 216.672C238.066 217.828 236 217.817 234.552 216.647Z" fill="#3F75FF"/>
<rect x="271.5" y="0.5" width="47" height="47" rx="23.5" fill="white"/>
<path d="M295 14.0002C294.883 14.0002 294.765 14.0208 294.65 14.0608L286.65 17.0608C286.57 17.0908 286.5 17.1299 286.43 17.1799C286.16 17.3699 286 17.6702 286 18.0002V31.0002C286 31.4202 286.26 31.7897 286.65 31.9397L294.65 34.9397H294.68C294.78 34.9797 294.89 35.0002 295 35.0002C295.11 35.0002 295.22 34.9797 295.32 34.9397H295.35L303.35 31.9397C303.74 31.7897 304 31.4202 304 31.0002V18.0002C304 17.6702 303.84 17.3699 303.57 17.1799C303.5 17.1299 303.43 17.0908 303.35 17.0608L295.35 14.0608C295.235 14.0208 295.117 14.0002 295 14.0002ZM288 19.4397L294 21.6897V32.5608L288 30.3108V19.4397ZM302 19.4397V30.3108L296 32.5608V21.6897L302 19.4397ZM289 22.0198V24.1702L290.5 24.7307V22.5803L289 22.0198ZM301 22.0198L299.5 22.5803V24.7307L301 24.1702V22.0198ZM291.5 22.9495V25.0999L293 25.6702V23.5198L291.5 22.9495ZM298.5 22.9495L297 23.5198V25.6702L298.5 25.0999V22.9495ZM289 26.3499V28.5002L290.5 29.0608V26.9104L289 26.3499ZM301 26.3499L299.5 26.9104V29.0608L301 28.5002V26.3499ZM291.5 27.2795V29.4299L293 30.0002V27.8499L291.5 27.2795ZM298.5 27.2795L297 27.8499V30.0002L298.5 29.4299V27.2795Z" fill="#C8CEDD"/>
<rect x="271.5" y="0.5" width="47" height="47" rx="23.5" stroke="#E9EEF2"/>
<rect x="118.5" y="392.5" width="47" height="47" rx="23.5" fill="white"/>
<path d="M142 406C141.883 406 141.765 406.021 141.65 406.061L133.65 409.061C133.57 409.091 133.5 409.13 133.43 409.18C133.16 409.37 133 409.67 133 410V423C133 423.42 133.26 423.79 133.65 423.94L141.65 426.94H141.68C141.78 426.98 141.89 427 142 427C142.11 427 142.22 426.98 142.32 426.94H142.35L150.35 423.94C150.74 423.79 151 423.42 151 423V410C151 409.67 150.84 409.37 150.57 409.18C150.5 409.13 150.43 409.091 150.35 409.061L142.35 406.061C142.235 406.021 142.117 406 142 406ZM135 411.44L141 413.69V424.561L135 422.311V411.44ZM149 411.44V422.311L143 424.561V413.69L149 411.44ZM136 414.02V416.17L137.5 416.731V414.58L136 414.02ZM148 414.02L146.5 414.58V416.731L148 416.17V414.02ZM138.5 414.949V417.1L140 417.67V415.52L138.5 414.949ZM145.5 414.949L144 415.52V417.67L145.5 417.1V414.949ZM136 418.35V420.5L137.5 421.061V418.91L136 418.35ZM148 418.35L146.5 418.91V421.061L148 420.5V418.35ZM138.5 419.28V421.43L140 422V419.85L138.5 419.28ZM145.5 419.28L144 419.85V422L145.5 421.43V419.28Z" fill="#C8CEDD"/>
<rect x="118.5" y="392.5" width="47" height="47" rx="23.5" stroke="#E9EEF2"/>
<rect x="284.5" y="399.5" width="47" height="47" rx="23.5" fill="white"/>
<path d="M308 413C307.883 413 307.765 413.021 307.65 413.061L299.65 416.061C299.57 416.091 299.5 416.13 299.43 416.18C299.16 416.37 299 416.67 299 417V430C299 430.42 299.26 430.79 299.65 430.94L307.65 433.94H307.68C307.78 433.98 307.89 434 308 434C308.11 434 308.22 433.98 308.32 433.94H308.35L316.35 430.94C316.74 430.79 317 430.42 317 430V417C317 416.67 316.84 416.37 316.57 416.18C316.5 416.13 316.43 416.091 316.35 416.061L308.35 413.061C308.235 413.021 308.117 413 308 413ZM301 418.44L307 420.69V431.561L301 429.311V418.44ZM315 418.44V429.311L309 431.561V420.69L315 418.44ZM302 421.02V423.17L303.5 423.731V421.58L302 421.02ZM314 421.02L312.5 421.58V423.731L314 423.17V421.02ZM304.5 421.949V424.1L306 424.67V422.52L304.5 421.949ZM311.5 421.949L310 422.52V424.67L311.5 424.1V421.949ZM302 425.35V427.5L303.5 428.061V425.91L302 425.35ZM314 425.35L312.5 425.91V428.061L314 427.5V425.35ZM304.5 426.28V428.43L306 429V426.85L304.5 426.28ZM311.5 426.28L310 426.85V429L311.5 428.43V426.28Z" fill="#C8CEDD"/>
<rect x="284.5" y="399.5" width="47" height="47" rx="23.5" stroke="#E9EEF2"/>
<rect x="407.5" y="122.5" width="55" height="55" rx="27.5" fill="white"/>
<path d="M435 140C434.883 140 434.765 140.021 434.65 140.061L426.65 143.061C426.57 143.091 426.5 143.13 426.43 143.18C426.16 143.37 426 143.67 426 144V157C426 157.42 426.26 157.79 426.65 157.94L434.65 160.94H434.68C434.78 160.98 434.89 161 435 161C435.11 161 435.22 160.98 435.32 160.94H435.35L443.35 157.94C443.74 157.79 444 157.42 444 157V144C444 143.67 443.84 143.37 443.57 143.18C443.5 143.13 443.43 143.091 443.35 143.061L435.35 140.061C435.235 140.021 435.117 140 435 140ZM428 145.44L434 147.69V158.561L428 156.311V145.44ZM442 145.44V156.311L436 158.561V147.69L442 145.44ZM429 148.02V150.17L430.5 150.731V148.58L429 148.02ZM441 148.02L439.5 148.58V150.731L441 150.17V148.02ZM431.5 148.949V151.1L433 151.67V149.52L431.5 148.949ZM438.5 148.949L437 149.52V151.67L438.5 151.1V148.949ZM429 152.35V154.5L430.5 155.061V152.91L429 152.35ZM441 152.35L439.5 152.91V155.061L441 154.5V152.35ZM431.5 153.28V155.43L433 156V153.85L431.5 153.28ZM438.5 153.28L437 153.85V156L438.5 155.43V153.28Z" fill="#F9A806"/>
<rect x="407.5" y="122.5" width="55" height="55" rx="27.5" stroke="#F9A806"/>
<rect x="347.5" y="212.5" width="55" height="55" rx="27.5" fill="white"/>
<path d="M375 230C374.883 230 374.765 230.021 374.65 230.061L366.65 233.061C366.57 233.091 366.5 233.13 366.43 233.18C366.16 233.37 366 233.67 366 234V247C366 247.42 366.26 247.79 366.65 247.94L374.65 250.94H374.68C374.78 250.98 374.89 251 375 251C375.11 251 375.22 250.98 375.32 250.94H375.35L383.35 247.94C383.74 247.79 384 247.42 384 247V234C384 233.67 383.84 233.37 383.57 233.18C383.5 233.13 383.43 233.091 383.35 233.061L375.35 230.061C375.235 230.021 375.117 230 375 230ZM368 235.44L374 237.69V248.561L368 246.311V235.44ZM382 235.44V246.311L376 248.561V237.69L382 235.44ZM369 238.02V240.17L370.5 240.731V238.58L369 238.02ZM381 238.02L379.5 238.58V240.731L381 240.17V238.02ZM371.5 238.949V241.1L373 241.67V239.52L371.5 238.949ZM378.5 238.949L377 239.52V241.67L378.5 241.1V238.949ZM369 242.35V244.5L370.5 245.061V242.91L369 242.35ZM381 242.35L379.5 242.91V245.061L381 244.5V242.35ZM371.5 243.28V245.43L373 246V243.85L371.5 243.28ZM378.5 243.28L377 243.85V246L378.5 245.43V243.28Z" fill="#C8CEDD"/>
<rect x="347.5" y="212.5" width="55" height="55" rx="27.5" stroke="#E9EEF2"/>
<rect x="74.5" y="216.5" width="55" height="55" rx="27.5" fill="white"/>
<path d="M102 234C101.883 234 101.765 234.021 101.65 234.061L93.6504 237.061C93.5704 237.091 93.4997 237.13 93.4297 237.18C93.1597 237.37 93 237.67 93 238V251C93 251.42 93.2604 251.79 93.6504 251.94L101.65 254.94H101.68C101.78 254.98 101.89 255 102 255C102.11 255 102.22 254.98 102.32 254.94H102.35L110.35 251.94C110.74 251.79 111 251.42 111 251V238C111 237.67 110.84 237.37 110.57 237.18C110.5 237.13 110.43 237.091 110.35 237.061L102.35 234.061C102.235 234.021 102.117 234 102 234ZM95 239.44L101 241.69V252.561L95 250.311V239.44ZM109 239.44V250.311L103 252.561V241.69L109 239.44ZM96 242.02V244.17L97.5 244.731V242.58L96 242.02ZM108 242.02L106.5 242.58V244.731L108 244.17V242.02ZM98.5 242.949V245.1L100 245.67V243.52L98.5 242.949ZM105.5 242.949L104 243.52V245.67L105.5 245.1V242.949ZM96 246.35V248.5L97.5 249.061V246.91L96 246.35ZM108 246.35L106.5 246.91V249.061L108 248.5V246.35ZM98.5 247.28V249.43L100 250V247.85L98.5 247.28ZM105.5 247.28L104 247.85V250L105.5 249.43V247.28Z" fill="#C8CEDD"/>
<rect x="74.5" y="216.5" width="55" height="55" rx="27.5" stroke="#E9EEF2"/>
<rect x="133.5" y="77.5" width="55" height="55" rx="27.5" fill="white"/>
<path d="M161 95.0002C160.883 95.0002 160.765 95.0208 160.65 95.0608L152.65 98.0608C152.57 98.0908 152.5 98.1299 152.43 98.1799C152.16 98.3699 152 98.6702 152 99.0002V112C152 112.42 152.26 112.79 152.65 112.94L160.65 115.94H160.68C160.78 115.98 160.89 116 161 116C161.11 116 161.22 115.98 161.32 115.94H161.35L169.35 112.94C169.74 112.79 170 112.42 170 112V99.0002C170 98.6702 169.84 98.3699 169.57 98.1799C169.5 98.1299 169.43 98.0908 169.35 98.0608L161.35 95.0608C161.235 95.0208 161.117 95.0002 161 95.0002ZM154 100.44L160 102.69V113.561L154 111.311V100.44ZM168 100.44V111.311L162 113.561V102.69L168 100.44ZM155 103.02V105.17L156.5 105.731V103.58L155 103.02ZM167 103.02L165.5 103.58V105.731L167 105.17V103.02ZM157.5 103.949V106.1L159 106.67V104.52L157.5 103.949ZM164.5 103.949L163 104.52V106.67L164.5 106.1V103.949ZM155 107.35V109.5L156.5 110.061V107.91L155 107.35ZM167 107.35L165.5 107.91V110.061L167 109.5V107.35ZM157.5 108.28V110.43L159 111V108.85L157.5 108.28ZM164.5 108.28L163 108.85V111L164.5 110.43V108.28Z" fill="#C8CEDD"/>
<rect x="133.5" y="77.5" width="55" height="55" rx="27.5" stroke="#E9EEF2"/>
<rect x="350.5" y="42.5" width="71" height="71" rx="35.5" fill="white"/>
<path d="M375.333 66C373.86 66 372.667 67.1933 372.667 68.6667V87.3333C372.667 88.8067 373.86 90 375.333 90H386H396.667C398.14 90 399.333 88.8067 399.333 87.3333V74C399.333 72.5267 398.14 71.3333 396.667 71.3333H386V68.6667C386 67.1933 384.807 66 383.333 66H375.333ZM375.333 68.6667H378V71.3333H375.333V68.6667ZM380.667 68.6667H383.333V71.3333H380.667V68.6667ZM375.333 74H378V76.6667H375.333V74ZM380.667 74H383.333V76.6667H380.667V74ZM386 74H396.667V87.3333H386V84.6667H388.667V82H386V79.3333H388.667V76.6667H386V74ZM391.333 76.6667V79.3333H394V76.6667H391.333ZM375.333 79.3333H378V82H375.333V79.3333ZM380.667 79.3333H383.333V82H380.667V79.3333ZM391.333 82V84.6667H394V82H391.333ZM375.333 84.6667H378V87.3333H375.333V84.6667ZM380.667 84.6667H383.333V87.3333H380.667V84.6667Z" fill="#C8CEDD"/>
<rect x="350.5" y="42.5" width="71" height="71" rx="35.5" stroke="#E9EEF2"/>
<rect x="0.5" y="127.5" width="71" height="71" rx="35.5" fill="white"/>
<path d="M25.3333 151C23.86 151 22.6667 152.193 22.6667 153.667V172.333C22.6667 173.807 23.86 175 25.3333 175H36H46.6667C48.14 175 49.3333 173.807 49.3333 172.333V159C49.3333 157.527 48.14 156.333 46.6667 156.333H36V153.667C36 152.193 34.8067 151 33.3333 151H25.3333ZM25.3333 153.667H28V156.333H25.3333V153.667ZM30.6667 153.667H33.3333V156.333H30.6667V153.667ZM25.3333 159H28V161.667H25.3333V159ZM30.6667 159H33.3333V161.667H30.6667V159ZM36 159H46.6667V172.333H36V169.667H38.6667V167H36V164.333H38.6667V161.667H36V159ZM41.3333 161.667V164.333H44V161.667H41.3333ZM25.3333 164.333H28V167H25.3333V164.333ZM30.6667 164.333H33.3333V167H30.6667V164.333ZM41.3333 167V169.667H44V167H41.3333ZM25.3333 169.667H28V172.333H25.3333V169.667ZM30.6667 169.667H33.3333V172.333H30.6667V169.667Z" fill="#3F75FF"/>
<rect x="0.5" y="127.5" width="71" height="71" rx="35.5" stroke="#3F75FF"/>
<rect x="364.5" y="323.5" width="71" height="71" rx="35.5" fill="white"/>
<path d="M389.333 347C387.86 347 386.667 348.193 386.667 349.667V368.333C386.667 369.807 387.86 371 389.333 371H400H410.667C412.14 371 413.333 369.807 413.333 368.333V355C413.333 353.527 412.14 352.333 410.667 352.333H400V349.667C400 348.193 398.807 347 397.333 347H389.333ZM389.333 349.667H392V352.333H389.333V349.667ZM394.667 349.667H397.333V352.333H394.667V349.667ZM389.333 355H392V357.667H389.333V355ZM394.667 355H397.333V357.667H394.667V355ZM400 355H410.667V368.333H400V365.667H402.667V363H400V360.333H402.667V357.667H400V355ZM405.333 357.667V360.333H408V357.667H405.333ZM389.333 360.333H392V363H389.333V360.333ZM394.667 360.333H397.333V363H394.667V360.333ZM405.333 363V365.667H408V363H405.333ZM389.333 365.667H392V368.333H389.333V365.667ZM394.667 365.667H397.333V368.333H394.667V365.667Z" fill="#36C44D"/>
<rect x="364.5" y="323.5" width="71" height="71" rx="35.5" stroke="#36C44D"/>
</svg>
