<svg width="45" height="38" viewBox="0 0 45 38" fill="none" xmlns="http://www.w3.org/2000/svg">
<path fill-rule="evenodd" clip-rule="evenodd" d="M26.6533 37.5469C36.7859 37.5469 45 29.3328 45 19.2002C45 9.0676 36.7859 0.853516 26.6533 0.853516C16.5208 0.853516 8.30667 9.0676 8.30667 19.2002C8.30667 29.3328 16.5208 37.5469 26.6533 37.5469ZM26.6533 28.3735C31.7196 28.3735 35.8267 24.2665 35.8267 19.2002C35.8267 14.1339 31.7196 10.0268 26.6533 10.0268C21.587 10.0268 17.48 14.1339 17.48 19.2002C17.48 24.2665 21.587 28.3735 26.6533 28.3735Z" fill="#FFFFFF"/>
<path d="M0 5.44018C0 2.90704 2.05352 0.853516 4.58667 0.853516H26.6533V10.0268H4.58667C2.05352 10.0268 0 7.97333 0 5.44018Z" fill="#FFFFFF"/>
<path d="M0 32.9602C0 30.427 2.05352 28.3735 4.58667 28.3735H26.6533V37.5469H4.58667C2.05352 37.5469 0 35.4933 0 32.9602Z" fill="#FFFFFF"/>
</svg>
