<svg width="139" height="187" viewBox="0 0 139 187" fill="none" xmlns="http://www.w3.org/2000/svg">
<path d="M97.3251 64.6822C97.3251 64.6822 100.895 116.111 68.7411 116.111C36.5871 116.111 39.1654 64.6822 39.1654 64.6822C39.1654 64.6822 37.6036 34.1025 69.8319 34.1025C99.8166 34.1025 97.3251 64.6822 97.3251 64.6822Z" fill="#F6F6F4" stroke="#161E2E" stroke-width="1.13" stroke-miterlimit="10"/>
<path d="M66.8438 81.0203V85.9785C66.8421 86.3178 66.9052 86.6544 67.0298 86.9701C67.2861 87.5431 67.7409 88.0043 68.3103 88.2685C68.8798 88.5327 69.5256 88.5823 70.1286 88.408L71.5913 88.0237" stroke="#161E2E" stroke-width="1.09" stroke-linecap="round" stroke-linejoin="round"/>
<path d="M59.233 74.8718C59.2355 75.4019 59.0805 75.9208 58.7878 76.3627C58.4951 76.8046 58.0778 77.1497 57.5888 77.3543C57.0998 77.5588 56.5611 77.6136 56.0409 77.5117C55.5207 77.4098 55.0425 77.1558 54.6668 76.7818C54.2911 76.4079 54.0349 75.9308 53.9305 75.4111C53.8262 74.8914 53.8785 74.3524 54.0808 73.8625C54.2831 73.3725 54.6262 72.9537 55.0668 72.6589C55.5074 72.3642 56.0255 72.2068 56.5556 72.2068C57.2635 72.2068 57.9427 72.4872 58.4444 72.9866C58.9462 73.486 59.2297 74.1639 59.233 74.8718V74.8718Z" fill="#161E2E"/>
<path d="M84.0743 74.8718C84.0743 75.3989 83.918 75.9142 83.6251 76.3524C83.3323 76.7907 82.9161 77.1323 82.4291 77.334C81.9421 77.5357 81.4063 77.5885 80.8893 77.4857C80.3724 77.3828 79.8975 77.129 79.5248 76.7563C79.1521 76.3836 78.8983 75.9087 78.7954 75.3918C78.6926 74.8748 78.7454 74.3389 78.9471 73.852C79.1488 73.365 79.4904 72.9488 79.9286 72.6559C80.3669 72.3631 80.8822 72.2068 81.4093 72.2068C82.1161 72.2068 82.7939 72.4876 83.2937 72.9874C83.7935 73.4872 84.0743 74.165 84.0743 74.8718V74.8718Z" fill="#161E2E"/>
<path d="M60.3616 94.2583C63.1057 95.8511 66.2221 96.69 69.395 96.69C72.5678 96.69 75.6842 95.8511 78.4283 94.2583" stroke="#161E2E" stroke-width="1.09" stroke-linecap="round" stroke-linejoin="round"/>
<path d="M95.0932 90.6759C97.2624 93.6756 101.464 91.7171 103.894 87.8125C106.323 83.9079 107.476 76.1236 103.894 74.0164C100.312 71.9091 97.312 76.2599 97.312 76.2599C97.312 76.2599 96.4443 84.1311 95.8121 87.0812L95.0932 90.6759Z" fill="#F6F6F4" stroke="#161E2E" stroke-width="1.15" stroke-miterlimit="10"/>
<path d="M96.3582 83.4991C99.2091 77.574 103.51 78.888 103.51 78.888" stroke="#161E2E" stroke-width="0.57" stroke-linecap="round" stroke-linejoin="round"/>
<path d="M98.577 80.6233C98.577 80.6233 102.965 82.9661 100.064 86.4864" stroke="#161E2E" stroke-width="0.57" stroke-linecap="round" stroke-linejoin="round"/>
<path d="M41.3343 90.6511C39.1651 93.6384 35.2233 91.7171 32.7938 87.8125C30.3643 83.9079 29.2239 76.1236 32.7938 74.0164C36.3637 71.9091 39.3758 76.2599 39.3758 76.2599" stroke="#161E2E" stroke-width="1.15" stroke-linecap="round" stroke-linejoin="round"/>
<path d="M33.1908 78.8875C33.1908 78.8875 37.2069 77.5488 40.0703 83.4738" stroke="#161E2E" stroke-width="0.57" stroke-linecap="round" stroke-linejoin="round"/>
<path d="M38.1119 80.6233C38.1119 80.6233 33.7363 82.9661 36.6245 86.4864" stroke="#161E2E" stroke-width="0.57" stroke-linecap="round" stroke-linejoin="round"/>
<path d="M83.4673 31.5861C78.7183 29.2627 73.5014 28.0549 68.2146 28.0549C62.9278 28.0549 57.7109 29.2627 52.962 31.5861C28.7907 43.6717 38.8683 75.9867 38.8683 75.9867L38.9922 74.5985C41.9608 70.511 44.0923 65.8773 45.2643 60.9634H90.9046C91.934 66.215 94.1002 71.1777 97.2511 75.5033C97.313 74.8835 97.3378 74.2638 97.3626 73.582L97.908 75.9867C97.908 75.9867 107.638 43.6717 83.4673 31.5861Z" fill="#161E2E"/>
<path d="M97.1458 37.1546C103.986 30.3147 103.986 19.2249 97.1458 12.3849C90.3058 5.54496 79.216 5.54493 72.3761 12.3849C65.5361 19.2249 65.5361 30.3147 72.376 37.1546C79.216 43.9946 90.3058 43.9946 97.1458 37.1546Z" fill="#161E2E"/>
<path d="M104.874 142.601C104.874 142.601 83.5412 137.891 82.0537 130.924V112.331" stroke="#161E2E" stroke-width="1.15" stroke-linecap="round" stroke-linejoin="round"/>
<path d="M55.28 112.232V130.887C55.28 130.887 49.4169 139.713 33.3275 142.502" stroke="#161E2E" stroke-width="1.15" stroke-linecap="round" stroke-linejoin="round"/>
<path d="M137.462 186.282C137.462 162.569 114.121 147.249 107.192 143.208C106.649 142.882 106.028 142.71 105.395 142.71C104.762 142.71 104.141 142.882 103.598 143.208C96.3214 147.769 66.3243 163.859 34.1827 142.749C33.8828 142.554 33.5358 142.442 33.1782 142.427C32.8205 142.412 32.4653 142.493 32.1499 142.662C26.6091 145.761 1 161.404 1 186.232" stroke="#161E2E" stroke-width="1.15" stroke-linecap="round" stroke-linejoin="round"/>
<path d="M42.9837 139.961C42.9837 139.961 65.4691 153.063 95.1316 139.899" stroke="#161E2E" stroke-width="1.15" stroke-linecap="round" stroke-linejoin="round"/>
<path d="M55.3913 113.223C55.3913 113.223 60.9569 125.619 72.2244 124.875C72.2244 124.875 80.2567 124.788 82.1408 116.793L81.3475 113.223C81.3475 113.223 71.2203 120.45 55.3913 113.223Z" fill="#161E2E"/>
<path d="M51.6848 67.8146C51.6848 67.8146 53.2323 65.6672 57.1432 65.7512C58.0977 65.7432 59.0436 65.9331 59.9211 66.3089C60.7986 66.6846 61.5887 67.2381 62.2417 67.9345" stroke="#161E2E" stroke-width="1.7" stroke-miterlimit="10" stroke-linecap="round"/>
<path d="M76.4757 67.8146C76.4757 67.8146 78.0233 65.6672 81.9341 65.7512C82.8887 65.7432 83.8346 65.9331 84.7121 66.3089C85.5896 66.6846 86.3797 67.2381 87.0326 67.9345" stroke="#161E2E" stroke-width="1.7" stroke-miterlimit="10" stroke-linecap="round"/>
</svg>
